HIERARCHY
ROOT joint_Root
{
	OFFSET 0.0 0.0 0.0
	CHANNELS 6 Xposition Yposition Zposition Zrotation Xrotation Yrotation 
	JOINT Hips
	{
		OFFSET 4.5925 91.4895 -427.239
		CHANNELS 6 Xposition Yposition Zposition Zrotation Xrotation Yrotation 
		JOINT Spine
		{
			OFFSET 15.7357 0.0 0.0
			CHANNELS 6 Xposition Yposition Zposition Zrotation Xrotation Yrotation 
			JOINT Chest
			{
				OFFSET 8.98455 -0.406207 0.0
				CHANNELS 6 Xposition Yposition Zposition Zrotation Xrotation Yrotation 
				JOINT Neck
				{
					OFFSET 16.3773 0.0 0.0
					CHANNELS 6 Xposition Yposition Zposition Zrotation Xrotation Yrotation 
					JOINT Head
					{
						OFFSET 6.45672 0.0 0.0
						CHANNELS 6 Xposition Yposition Zposition Zrotation Xrotation Yrotation 
						End Site
						{
							OFFSET 0.0 0.0 0.0
						}
					}
				}
				JOINT Shoulder_L
				{
					OFFSET 12.9942 -0.242716 4.98039
					CHANNELS 6 Xposition Yposition Zposition Zrotation Xrotation Yrotation 
					JOINT UpperArm_L
					{
						OFFSET 5.34809 0.0 0.0
						CHANNELS 6 Xposition Yposition Zposition Zrotation Xrotation Yrotation 
						JOINT LowerArm_L
						{
							OFFSET 24.3286 1.87007e-05 0.0
							CHANNELS 6 Xposition Yposition Zposition Zrotation Xrotation Yrotation 
							JOINT Hand_L
							{
								OFFSET 22.2916 0.0 0.0
								CHANNELS 6 Xposition Yposition Zposition Zrotation Xrotation Yrotation 
								End Site
								{
									OFFSET 0.0 0.0 0.0
								}
							}
						}
					}
				}
				JOINT Shoulder_R
				{
					OFFSET 12.9945 -0.242716 -4.98039
					CHANNELS 6 Xposition Yposition Zposition Zrotation Xrotation Yrotation 
					JOINT UpperArm_R
					{
						OFFSET -5.34813 0.0 0.0
						CHANNELS 6 Xposition Yposition Zposition Zrotation Xrotation Yrotation 
						JOINT LowerArm_R
						{
							OFFSET -24.3289 0.000322201 0.0
							CHANNELS 6 Xposition Yposition Zposition Zrotation Xrotation Yrotation 
							JOINT Hand_R
							{
								OFFSET -22.2915 -0.000108084 0.0
								CHANNELS 6 Xposition Yposition Zposition Zrotation Xrotation Yrotation 
								End Site
								{
									OFFSET 0.0 0.0 0.0
								}
							}
						}
					}
				}
			}
		}
		JOINT UpperLeg_L
		{
			OFFSET -2.19248 -6.46944 0.0
			CHANNELS 6 Xposition Yposition Zposition Zrotation Xrotation Yrotation 
			JOINT LowerLeg_L
			{
				OFFSET 39.0811 0.0 -1.23785e-05
				CHANNELS 6 Xposition Yposition Zposition Zrotation Xrotation Yrotation 
				JOINT Foot_L
				{
					OFFSET 40.9854 0.0 -1.26872e-05
					CHANNELS 6 Xposition Yposition Zposition Zrotation Xrotation Yrotation 
					JOINT Toes_L
					{
						OFFSET 11.7543 0.0 0.0
						CHANNELS 6 Xposition Yposition Zposition Zrotation Xrotation Yrotation 
						End Site
						{
							OFFSET 0.0 0.0 0.0
						}
					}
				}
			}
		}
		JOINT UpperLeg_R
		{
			OFFSET -2.19251 6.46944 0.0
			CHANNELS 6 Xposition Yposition Zposition Zrotation Xrotation Yrotation 
			JOINT LowerLeg_R
			{
				OFFSET -39.0811 -0.00228153 -0.0401928
				CHANNELS 6 Xposition Yposition Zposition Zrotation Xrotation Yrotation 
				JOINT Foot_R
				{
					OFFSET -40.9854 0.0 0.0
					CHANNELS 6 Xposition Yposition Zposition Zrotation Xrotation Yrotation 
					JOINT Toes_R
					{
						OFFSET -11.7543 0.0 0.0
						CHANNELS 6 Xposition Yposition Zposition Zrotation Xrotation Yrotation 
						End Site
						{
							OFFSET 0.0 0.0 0.0
						}
					}
				}
			}
		}
	}
}
MOTION
Frames:	4
Frame Time:	0.0333333
0.000000 0.000000 0.000000 0.000000 0.000000 -0.000000 -197.768000 90.978600 190.764000 61.599700 82.225600 23.864600 15.735700 0.000005 -0.000001 61.543600 81.748700 -60.366300 8.984550 -0.406207 -0.000000 6.874090 -7.846810 2.826950 16.377300 -0.000001 -0.000001 0.801490 -0.025544 0.428745 6.456720 -0.000001 -0.000000 -5.814200 5.313980 -0.214612 12.994200 -0.242716 4.980390 -86.787800 -9.532780 -71.280400 5.348090 -0.000007 -0.000001 -47.484500 25.446000 -53.248300 24.328600 0.000019 0.000005 1.413650 -0.987097 -124.908000 22.291600 -0.000001 0.000005 18.302200 5.522080 -7.451370 12.994500 -0.242716 -4.980390 90.948900 -3.901000 -76.316800 -5.348130 -0.000001 -0.000004 -64.764200 41.500800 32.963900 -24.328900 0.000322 -0.000009 -22.204700 -0.782573 -88.083500 -22.291500 -0.000108 -0.000004 11.559000 5.552400 -8.819100 -2.192480 -6.469440 -0.000000 -177.292000 -11.999100 -1.559530 39.081100 -0.000007 -0.000012 -0.115453 0.307127 20.602000 40.985400 -0.000006 -0.000013 2.214770 1.711490 -73.923700 11.754300 -0.000000 0.000003 -0.195469 -0.238748 -16.427800 -2.192510 6.469440 -0.000001 -179.783000 0.545042 142.818000 -39.081100 -0.002282 -0.040193 0.020579 -0.010844 58.020000 -40.985400 0.000008 0.000006 3.522640 -2.661670 -58.197900 -11.754300 -0.000006 -0.000006 -0.020570 -0.170428 -23.537200
0.000000 0.000000 0.000000 0.000000 0.000000 -0.000000 -194.216000 90.269900 191.049000 70.973400 81.296900 15.126700 15.735700 0.000005 -0.000001 60.578400 81.485900 -59.522300 8.984550 -0.406207 -0.000000 7.202100 -8.340460 2.638600 16.377300 -0.000001 -0.000001 1.022790 0.917217 0.658947 6.456720 -0.000001 -0.000000 -5.714180 5.994290 0.912839 12.994200 -0.242716 4.980390 -86.229000 -10.884100 -70.757700 5.348090 -0.000007 -0.000001 -45.466400 24.387400 -54.033900 24.328600 0.000019 0.000005 0.569436 -0.369729 -122.996000 22.291600 -0.000001 0.000005 18.119500 5.503500 -6.678300 12.994500 -0.242716 -4.980390 91.003900 -4.223790 -76.617400 -5.348130 -0.000001 -0.000004 -63.479400 39.050800 31.710900 -24.328900 0.000322 -0.000009 -22.040000 0.355580 -90.877500 -22.291500 -0.000108 -0.000004 12.108800 5.556000 -8.990850 -2.192480 -6.469440 -0.000000 -177.837000 -13.739900 2.084620 39.081100 -0.000007 -0.000012 -0.002638 0.007237 20.024100 40.985400 -0.000006 -0.000013 4.217590 1.816740 -75.276200 11.754300 -0.000000 0.000003 -0.312988 -0.390954 -17.549900 -2.192510 6.469440 -0.000001 179.886000 2.779440 142.204000 -39.081100 -0.002282 -0.040193 0.011717 -0.007848 47.146600 -40.985400 0.000008 0.000006 0.417376 1.519180 -60.027500 -11.754300 -0.000006 -0.000006 -0.021346 -0.174632 -23.710500
0.000000 0.000000 0.000000 0.000000 0.000000 -0.000000 -190.239000 89.054100 191.528000 77.067300 81.026200 10.277300 15.735700 0.000005 -0.000001 60.512700 80.910400 -59.588300 8.984550 -0.406207 -0.000000 8.205590 -8.905430 2.490020 16.377300 -0.000001 -0.000001 0.904100 1.540770 0.559819 6.456720 -0.000001 -0.000000 -6.218590 6.305550 2.513360 12.994200 -0.242716 4.980390 -86.245300 -10.911000 -70.878300 5.348090 -0.000007 -0.000001 -44.572800 24.435400 -52.600900 24.328600 0.000019 0.000005 0.196318 -0.112551 -119.836000 22.291600 -0.000001 0.000005 17.569600 5.501370 -6.589030 12.994500 -0.242716 -4.980390 90.562800 -2.412190 -76.863400 -5.348130 -0.000001 -0.000004 -61.907100 36.729000 28.977500 -24.328900 0.000322 -0.000009 -21.886800 1.480410 -93.679200 -22.291500 -0.000108 -0.000004 12.834200 5.569140 -9.638820 -2.192480 -6.469440 -0.000000 -177.420000 -13.883300 5.175260 39.081100 -0.000007 -0.000012 -0.021275 0.051809 22.325200 40.985400 -0.000006 -0.000013 2.938620 3.193820 -76.754600 11.754300 -0.000000 0.000003 -0.797083 -0.957464 -19.733100 -2.192510 6.469440 -0.000001 -179.162000 7.420830 142.665000 -39.081100 -0.002282 -0.040193 -0.016951 0.025217 38.741500 -40.985400 0.000008 0.000006 -3.680710 6.507170 -60.409000 -11.754300 -0.000006 -0.000006 -0.021136 -0.173500 -23.663800
0.000000 0.000000 0.000000 0.000000 0.000000 -0.000000 -185.786000 87.705200 192.448000 80.416400 81.385400 7.386830 15.735700 0.000005 -0.000001 59.977700 80.746900 -58.954900 8.984550 -0.406207 -0.000000 8.422110 -9.210920 2.726680 16.377300 -0.000001 -0.000001 0.673644 1.645740 0.327750 6.456720 -0.000001 -0.000000 -6.014860 6.372530 2.981460 12.994200 -0.242716 4.980390 -87.053900 -9.032130 -71.851700 5.348090 -0.000007 -0.000001 -45.518500 26.856900 -48.089500 24.328600 0.000019 0.000005 0.658945 -0.301325 -114.632000 22.291600 -0.000001 0.000005 17.418800 5.510350 -6.956010 12.994500 -0.242716 -4.980390 89.746900 1.071430 -76.713200 -5.348130 -0.000001 -0.000004 -60.952200 35.591900 25.134800 -24.328900 0.000322 -0.000009 -22.663500 2.381040 -95.680600 -22.291500 -0.000108 -0.000004 14.066000 5.589670 -10.736200 -2.192480 -6.469440 -0.000000 -176.900000 -12.500000 6.762950 39.081100 -0.000007 -0.000012 -0.037010 0.075880 26.000700 40.985400 -0.000006 -0.000013 2.122340 4.032720 -76.755000 11.754300 -0.000000 0.000003 -0.386644 -0.564224 -25.185600 -2.192510 6.469440 -0.000001 -176.528000 13.417000 141.960000 -39.081100 -0.002282 -0.040193 -0.037483 0.054580 36.759100 -40.985400 0.000008 0.000006 -5.745320 7.288670 -61.997800 -11.754300 -0.000006 -0.000006 -0.021180 -0.173739 -23.673700
